<?xml version="1.0" encoding="utf-8" ?><svg xmlns="http://www.w3.org/2000/svg" xmlns:xlink="http://www.w3.org/1999/xlink" width="1024" height="1024" viewBox="0 0 1024 1024"><path fill="white" d="M0 0L1024 0L1024 1024L0 1024L0 0Z"/><path fill="#07AA96" d="M460.042 483.212C467.214 483.35 470.879 485.032 477.377 487.86C495.31 483.521 504.98 486.329 515.37 502.42C534.091 503.174 548.434 511.839 551.76 532.169C552.693 537.867 542.239 539.325 542.649 544.445C543.81 545.888 543.084 545.381 544.984 545.89C548.715 545.244 552.845 541.996 555.874 539.778C574.77 550.671 574.795 568.247 566.31 586.056C571.197 600.514 566.781 614.31 553.571 622.203C549.517 624.587 545 626.074 540.324 626.565C522.263 628.561 524.333 615.017 512.204 612.903C487.481 609.284 469.384 630.533 449.974 642.674C432.874 653.37 410.966 654.298 398.836 635.71C387.062 617.668 397.417 592.553 418.257 587.705C425.485 586.024 433.605 587.083 439.72 581.815C448.535 574.278 452.863 562.628 463.366 556.783C475.294 550.209 485.938 552.167 498.2 555.427C501.103 540.737 503.523 534.161 519.247 531.053C520.694 529.711 521.387 529.339 521.478 527.742L520.41 526.944C516.241 526.177 512.821 527.128 508.792 528.117C497.601 510.594 509.643 507.552 509.353 501.973C507.891 500.91 508.309 501.248 506.141 501.191C500.868 503.287 500.543 505.068 498.507 510.092C496.195 508.719 495.378 507.665 492.784 508.567C491.037 511.99 494.609 513.335 497.086 514.567C499.384 520.712 500.797 524.909 503.701 530.871C497.502 536.951 496.14 540.003 493.606 548.134C471.493 542.97 459.125 549.078 444.988 566.329C430 547.806 436.066 527.623 452.584 511.744C454.149 510.24 458.818 511.185 460.965 508.001C460.16 500.59 448.424 507.429 445.382 509.511C442.729 505.72 435.899 497.706 431.566 503.991C432.25 507.664 435.785 506.585 438.698 509.584C443.72 514.757 435.767 524.368 433.102 530.962C431.416 535.049 430.512 539.415 430.436 543.835C430.266 554.865 434.641 563.142 442.178 570.859C434.289 580.544 432.718 579.208 420.872 581.223C396.947 585.29 384.4 604.24 388.122 627.545C386.837 627.886 385.545 628.201 384.248 628.49C364.596 632.813 341.675 627.2 336.237 604.758C333.71 594.33 337.107 588.032 342.697 579.532C340.103 558.681 342.242 552.811 358.31 539.648C361.966 516.972 372.604 511.279 393.943 508.348C405.219 491.243 416.025 482.934 437.209 491.158C445.707 485.78 449.969 483.866 460.042 483.212Z"/><path fill="white" d="M531.177 550.229C534.585 550.777 536.982 552.411 536.321 556.258C534.952 564.234 529.111 571.119 523.143 575.977C533.086 579.928 540.573 585.487 545.999 594.821C547.231 596.939 548.594 602.036 545.862 603.364C542.65 602.683 539.575 595.358 536.482 591.919C533.752 588.859 530.468 586.344 526.803 584.505C515.065 578.618 503.469 580.863 491.54 584.828C485.549 595.485 480.497 599.699 467.888 596.785C464.252 605.695 459.84 609.272 451.995 614.161C452.348 616.964 453.618 623.641 450.185 624.719C446.96 622.687 446.572 617.534 446.31 614.077C440.283 615.035 436.692 615.662 431.992 619.921C430.182 621.56 427.741 623.778 425.325 622.71C423.808 619.274 425.776 618.009 427.951 615.474C433.952 608.477 442.562 610.86 450.191 607.869C458.909 604.451 462.223 596.241 465.62 588.305C478.389 595.248 480.822 591.329 487.304 579.989C500.106 577.095 500.654 574.652 515.797 574.437C516.379 574.129 516.952 573.803 517.516 573.462C526.628 567.884 528.981 559.821 531.177 550.229Z"/><path fill="white" d="M417.625 515.266C428.759 516.326 430.274 536.732 420.918 541.363C418.596 542.829 413.777 544.357 412.19 546.585C409.745 550.016 414.807 557.819 409.794 559.03C404.812 557.669 405.866 549.967 406.071 545.837C403.445 545.672 400.811 545.724 398.194 545.993C390.798 546.786 386.777 550.521 382.352 555.896C383.441 567.242 382.29 572.974 372.626 579.849C373.592 584.598 374.35 590.081 375.082 594.911C376.707 596.048 378.776 597.035 379.486 598.764C379.097 600.265 379.186 600.197 378.057 601.241C376.696 601.629 375.443 601.286 374.225 600.807C372.159 600.123 369.242 605.902 367.315 606.357C358.42 608.458 366.933 599.213 368.283 597.571C369.008 593.356 369.531 587.836 367.973 583.777C366.768 580.636 360.76 582.586 357.155 581.224C356.015 579.961 356.284 580.681 356.286 579.006C358.992 574.262 386.704 577.114 374.842 553.809C379.174 550.121 383.067 547.079 385.721 541.85C389.003 535.385 375.555 529.876 378.177 523.94C378.566 523.769 378.975 523.551 379.399 523.571C387.578 523.964 390.165 535.682 390.732 541.629C405.351 539.32 431.322 543.72 417.149 518.91C416.352 517.514 417.074 516.558 417.625 515.266Z"/><path fill="white" d="M471.269 499.348C471.789 499.45 472.809 499.687 473.302 499.817C475.571 501.026 473.719 509.323 473.77 511.741C473.92 518.921 481.986 521.595 477.164 527.609C467.628 521.48 466.204 508.91 471.269 499.348Z"/><path fill="#07AA96" d="M551.872 255.32C553.504 257.016 558.277 263.503 560.084 265.689C565.991 272.752 572.765 279.043 580.246 284.411C613.515 308.609 659.308 313.949 676.362 355.848C681.671 368.892 682.216 378.446 682.195 392.158C664.216 347.369 607.319 356.017 568.85 359.64C568.985 371.468 569.044 383.296 569.026 395.125C569.233 443.103 568.053 493.858 569.336 541.576C566.013 538.308 562.794 535.517 558.806 533.106C558.056 519.668 552.341 517.605 552.071 507.011C551.828 497.452 551.935 486.546 551.932 476.849L551.94 420.651L551.872 255.32Z"/><path fill="#07AA96" d="M504.098 619.689C519.06 617.728 523.543 628.274 518.121 640.965C523.574 651.008 534.478 665.812 541.079 676.166C536.646 677.582 531.424 678.885 526.889 680.134C524.144 677.276 520.974 673.392 518.376 670.356C513.28 664.621 499.73 648.565 493.525 646.049C488.456 643.994 474.74 639.795 469.06 637.941C481.27 628.373 487.124 621.428 504.098 619.689Z"/></svg>