<svg xmlns="http://www.w3.org/2000/svg" viewBox="-10 -59 87.8 68.8">
  <path d="M4-0.40L65.20-21Q67-21.40 67.40-22.40L67.40-22.40Q67.80-23.40 67.80-24.60L67.80-24.60Q67.80-25.80 67.40-26.80L67.40-26.80Q67-27.60 65.20-28.20L65.20-28.20L5.20-48.60Q4.60-48.80 4-48.80L4-48.80Q3.60-49 3.40-49L3.40-49Q2-49 1.40-48.20L1.40-48.20Q0.80-47.40 0.40-46.20L0.40-46.20Q0-45 0-44.20L0-44.20Q0-43.40 0.60-42.80L0.60-42.80Q1.20-42 2.80-41.40L2.80-41.40Q5.40-40.60 24.60-34L24.60-34Q43.80-27.40 48-26L48-26Q48.80-25.80 49-25.40L49-25.40Q49.40-25 49.40-24.60L49.40-24.60Q49.40-24.20 49-23.80L49-23.80Q48.60-23.40 47.80-23.20L47.80-23.20Q43.60-21.80 24.40-15.40L24.40-15.40Q5.40-8.80 2.80-8L2.80-8Q1.20-7.20 0.60-6.60L0.60-6.60Q0-5.80 0-5L0-5Q0-4.20 0.40-3.20L0.40-3.20Q0.80-2 1.60-1.20L1.60-1.20Q2.20-0.20 3.20-0.20L3.20-0.20Q3.40-0.20 3.60-0.20L3.60-0.20Q3.80-0.20 4-0.40L4-0.40Z" fill="currentColor"/>
</svg>