<svg xmlns="http://www.w3.org/2000/svg" viewBox="-11 -62.4 157.8 199.4">
  <path d="M50.40-52.40L50.40-52.40Q24.40-51.40 12.20-37.40L12.20-37.40Q-0.20-23.20 0-7.80L0-7.80Q0 4.60 6.20 13L6.20 13Q12.40 21.60 24.60 22L24.60 22Q34.20 21.80 40 16L40 16Q45.60 10.20 45.80 0.80L45.80 0.80Q45.60-9 39.80-14.40L39.80-14.40Q34.20-20 26.60-20L26.60-20Q22.60-20 20.60-19.40L20.60-19.40Q18.40-18.60 16.60-18.60L16.60-18.60Q14.60-18.60 14-19.60L14-19.60Q13.40-20.60 13.40-22.20L13.40-22.20Q13.60-28.80 22-36.60L22-36.60Q30.40-44.20 45.80-44.80L45.80-44.80Q61.60-44.40 69-30.40L69-30.40Q76.20-16.40 76.20 7.40L76.20 7.40Q76 48.60 56.60 75.20L56.60 75.20Q37.20 101.60 2 121L2 121Q0.60 121.80-0.20 122.60L-0.20 122.60Q-1 123.40-1 124.60L-1 124.60Q-1 125.60-0.40 126.20L-0.40 126.20Q0.20 127 1.60 127L1.60 127Q3.20 127 5 126L5 126Q43.60 108.40 74 79.60L74 79.60Q104.40 50.80 106.20 5.60L106.20 5.60Q106-20.80 91.20-36.40L91.20-36.40Q76.60-52 50.40-52.40L50.40-52.40ZM125.80-36L125.80-36Q121-35.80 118-32.80L118-32.80Q115-29.80 114.80-25L114.80-25Q115-20.20 118-17.20L118-17.20Q121-14.20 125.80-14L125.80-14Q130.60-14.20 133.60-17.20L133.60-17.20Q136.60-20.20 136.80-25L136.80-25Q136.60-29.80 133.60-32.80L133.60-32.80Q130.60-35.80 125.80-36L125.80-36ZM126 14.20L126 14.20Q121.20 14.20 118.20 17.20L118.20 17.20Q115.20 20.20 115.20 25L115.20 25Q115.20 29.80 118.20 32.80L118.20 32.80Q121.20 35.80 126 35.80L126 35.80Q130.80 35.80 133.80 32.80L133.80 32.80Q136.80 29.80 136.80 25L136.80 25Q136.80 20.20 133.80 17.20L133.80 17.20Q130.80 14.20 126 14.20L126 14.20Z" fill="currentColor"/>
</svg>