<svg xmlns="http://www.w3.org/2000/svg" viewBox="-10.8 -189.6 211.8 231.2">
  <path d="M187.40-80L187.40-80L163.60-80Q161.40-108.80 143.80-128.40L143.80-128.40Q126.20-147.80 101.20-150.40L101.20-150.40L101.20-176.20Q101.20-178.20 99.80-178.80L99.80-178.80Q98.40-179.60 96.40-179.60L96.40-179.60Q94.40-179.60 93-178.80L93-178.80Q91.60-178.20 91.60-176.20L91.60-176.20L91.60-150.40Q66.60-147.80 49-128.40L49-128.40Q31.60-109 29.20-80L29.20-80L2.80-80Q0.80-80 0-78.60L0-78.60Q-0.80-77.20-0.80-75.20L-0.80-75.20Q-0.80-73.20 0-71.80L0-71.80Q0.80-70.40 2.80-70.40L2.80-70.40L29.20-70.40Q31.60-41.80 49-22.20L49-22.20Q66.60-2.60 91.60 0L91.60 0L91.60 28Q91.60 30 93 30.80L93 30.80Q94.40 31.60 96.40 31.60L96.40 31.60Q98.40 31.60 99.80 30.80L99.80 30.80Q101.20 30 101.20 28L101.20 28L101.20 0Q126.20-2.60 143.80-22.20L143.80-22.20Q161.40-41.80 163.60-70.40L163.60-70.40L187.40-70.40Q189.40-70.40 190.20-71.80L190.20-71.80Q191-73.20 191-75.20L191-75.20Q191-77.20 190.20-78.60L190.20-78.60Q189.40-80 187.40-80L187.40-80ZM130.60-80L130.60-80L101.20-80L101.20-139.20Q121.40-137 126.40-120.80L126.40-120.80Q131.40-104.80 130.60-80L130.60-80ZM91.60-139.20L91.60-139.20L91.60-80L63.20-80Q62.40-104.80 66.80-120.80L66.80-120.80Q71.20-137 91.60-139.20L91.60-139.20ZM63.20-70.40L63.20-70.40L91.60-70.40L91.60-9.60Q73-12.40 67.80-29.60L67.80-29.60Q62.60-46.60 63.20-70.40L63.20-70.40ZM101.20-9.60L101.20-9.60L101.20-70.40L130.60-70.40Q130.80-46.80 125-29.60L125-29.60Q119.40-12.60 101.20-9.60L101.20-9.60Z" fill="currentColor"/>
</svg>