<svg xmlns="http://www.w3.org/2000/svg" viewBox="-10 -149.2 126.6 187.4">
  <path d="M63.40-139.20L62.20-139.20Q61.40-139.20 61-139L61-139Q60.40-138.80 60.40-137.80L60.40-137.80L60.40-23Q57.60-25.60 53.40-26.80L53.40-26.80Q49.40-28.20 44.40-28.20L44.40-28.20Q25.40-27.60 13-16.60L13-16.60Q0.40-5.60 0 9.40L0 9.40Q0.20 18.40 6.40 23.20L6.40 23.20Q12.40 28.20 21.80 28.20L21.80 28.20Q37.80 27.60 51.60 16.60L51.60 16.60Q65.40 5.40 66.40-9.40L66.40-9.40L66.40-92.80Q83.20-88.60 91.20-73L91.20-73Q99-57.40 99-40.80L99-40.80Q99-35.60 98-30.20L98-30.20Q97-24.80 95-19.60L95-19.60Q94.40-18.20 94.40-17.20L94.40-17.20Q94.40-15.40 95.40-14.20L95.40-14.20Q96.20-13.20 97.20-12.80L97.20-12.80Q97.80-12.40 98.40-12.40L98.40-12.40Q99.40-12.40 100.40-13.20L100.40-13.20Q101.40-13.80 102.20-15.60L102.20-15.60Q102.80-17.40 104.60-25.40L104.60-25.40Q106.40-33.20 106.60-41.20L106.60-41.20L106.60-42.60Q105.80-57.20 100.40-70.80L100.40-70.80Q95-84.20 86.40-96L86.40-96Q79.80-105.20 74.80-115L74.80-115Q69.80-124.80 67.40-135.80L67.40-135.80Q66.80-138 65.80-138.60L65.80-138.60Q64.60-139.20 63.40-139.20L63.40-139.20Z" fill="currentColor"/>
</svg>