<svg xmlns="http://www.w3.org/2000/svg" viewBox="-38.2 -98.8 121.01 139.2">
  <path d="M14.80-52.80L3.20-52.80Q0-52.80 0-49.60L0-49.60Q0-46.60 3-46.60L3-46.60L14.60-46.60Q15.40-46.60 15.80-46.60L15.80-46.60Q16.20-46.40 16.20-45.80L16.20-45.80Q16.20-45.20 15.80-43.80L15.80-43.80L3.20 0Q-0.80 14.40-4.40 20.40L-4.40 20.40Q-8.20 26.20-14 26L-14 26Q-16 26-16.80 25.40L-16.80 25.40Q-17.60 25-17.60 24.20L-17.60 24.20Q-17.60 23.20-16.40 23L-16.40 23Q-15 23-12.80 21.60L-12.80 21.60Q-11 20.40-9.80 18.40L-9.80 18.40Q-8.80 16.60-8.80 14.20L-8.80 14.20Q-8.80 10.20-11.20 8.20L-11.20 8.20Q-13.60 6-17.80 6L-17.80 6Q-22.40 6.20-25.20 9.20L-25.20 9.20Q-28.20 12.20-28.20 17L-28.20 17Q-28 23.60-23.80 27L-23.80 27Q-19.60 30.40-13.20 30.40L-13.20 30.40Q-2 30.40 6.20 22.40L6.20 22.40Q14.40 14.40 22.40-2.40L22.40-2.40Q26.60-11.40 30.20-21.40L30.20-21.40Q33.80-31.40 37.40-44L37.40-44L37.60-44.20Q37.60-44.80 38.60-45.60L38.60-45.60Q39.40-46.60 40.20-46.60L40.20-46.60L53.20-46.60Q56.40-46.60 56.40-49.80L56.40-49.80Q56.40-52.80 53.40-52.80L53.40-52.80L41.40-52.80Q40.40-52.80 39.80-53L39.80-53Q39.40-53 39.40-53.80L39.40-53.80Q39.40-54.20 39.60-54.80L39.60-54.80Q39.60-55.40 39.80-56.20L39.80-56.20Q42.60-69.40 46.80-76.80L46.80-76.80Q50.80-84 58.20-84.20L58.20-84.20Q59.40-84.20 60.40-83.80L60.40-83.80Q61.40-83.40 61.40-82.60L61.40-82.60Q61.40-81.80 60.60-81.60L60.60-81.60Q59.80-81.20 58.20-80.60L58.20-80.60Q56.20-79.60 55.20-77.80L55.20-77.80Q54-75.80 54-73L54-73Q54-68.80 56.60-66.80L56.60-66.80Q59.20-64.60 63-64.60L63-64.60Q67-64.60 69.80-67.20L69.80-67.20Q72.60-69.80 72.80-75.40L72.80-75.40Q73-81 69-84.80L69-84.80Q65-88.60 55.60-88.80L55.60-88.80Q41.20-88.60 32.40-79.60L32.40-79.60Q23.60-70.40 18.80-55.80L18.80-55.80Q18.20-53.60 17.40-53.20L17.40-53.20Q16.80-52.80 14.80-52.80L14.80-52.80Z" fill="currentColor"/>
</svg>