<svg xmlns="http://www.w3.org/2000/svg" viewBox="-9.4 -76.08 140.4 86.68">
  <path d="M60.40-44.20L60.40-44.20Q91.40-42.40 102.20-27.40L102.20-27.40Q113-12.40 113.60-5L113.60-5Q113.80-4.60 113.80-4.20L113.80-4.20Q113.80-3.80 114-3.60L114-3.60Q115-1.60 115.80-0.40L115.80-0.40Q116.80 0.60 118.20 0.60L118.20 0.60Q119.60 0.60 120.20 0L120.20 0Q121-0.80 121-2.20L121-2.20Q121-3 120.80-4.20L120.80-4.20Q109.40-48.20 88.40-58L88.40-58Q67.20-67.60 60.80-65.80L60.80-65.80Q54-67.60 33-58L33-58Q12-48.20 0.80-4.20L0.80-4.20Q0.60-3 0.60-2L0.60-2Q0.60-0.60 1.40 0L1.40 0Q2 0.60 3.20 0.60L3.20 0.60Q4.60 0.60 5.40-0.40L5.40-0.40Q6.40-1.60 7.20-3.60L7.20-3.60Q7.40-3.80 7.60-4.20L7.60-4.20Q7.60-4.80 7.80-5.40L7.80-5.40Q8.80-13.20 19.60-27.80L19.60-27.80Q30.40-42.60 60.40-44.20L60.40-44.20ZM71.60-10.40L71.60-10.40Q71.40-14.80 68.40-18L68.40-18Q65.20-21 60.60-21.20L60.60-21.20Q56.20-21 53-18L53-18Q50-14.80 49.80-10.40L49.80-10.40Q50-5.80 53-2.60L53-2.60Q56.20 0.40 60.60 0.60L60.60 0.60Q65.20 0.40 68.40-2.60L68.40-2.60Q71.40-5.80 71.60-10.40L71.60-10.40Z" fill="currentColor"/>
</svg>