<svg xmlns="http://www.w3.org/2000/svg" viewBox="-37 -98.8 169.01 139.2">
  <path d="M64-52.80L42.60-52.80Q41.60-52.80 41-53L41-53Q40.60-53 40.60-53.80L40.60-53.80Q40.60-54.20 40.80-54.80L40.80-54.80Q40.80-55.40 41-56.20L41-56.20Q43.80-69.40 47-76.80L47-76.80Q50.20-84 55.80-84.20L55.80-84.20Q57.40-84.20 57.40-83.40L57.40-83.40Q57.20-82.60 55.60-81.20L55.60-81.20Q54-79.60 53.80-75.80L53.80-75.80Q53.80-71.40 56.20-69.60L56.20-69.60Q58.60-67.60 62.20-67.60L62.20-67.60Q66.20-67.60 68.60-70.20L68.60-70.20Q71-72.80 71-77.80L71-77.80Q71.20-82 67.60-85.20L67.60-85.20Q64-88.60 55.60-88.80L55.60-88.80Q41.20-88.60 33-79.60L33-79.60Q24.80-70.60 20-55.80L20-55.80Q19.40-53.60 18.60-53.20L18.60-53.20Q18-52.80 16-52.80L16-52.80L4.40-52.80Q1.20-52.80 1.20-49.60L1.20-49.60Q1.20-46.60 4.20-46.60L4.20-46.60L15.80-46.60Q16.60-46.60 17-46.60L17-46.60Q17.40-46.40 17.40-45.80L17.40-45.80Q17.40-45.20 17-43.80L17-43.80L4.40 0Q0.40 14.40-3.20 20.40L-3.20 20.40Q-7 26.20-12.80 26L-12.80 26Q-14.80 26-15.60 25.40L-15.60 25.40Q-16.40 25-16.40 24.20L-16.40 24.20Q-16.40 23.20-15.20 23L-15.20 23Q-13.80 23-11.60 21.60L-11.60 21.60Q-9.80 20.40-8.60 18.40L-8.60 18.40Q-7.60 16.60-7.60 14.20L-7.60 14.20Q-7.60 10.20-10 8.20L-10 8.20Q-12.40 6-16.60 6L-16.60 6Q-21.20 6.20-24 9.20L-24 9.20Q-27 12.20-27 17L-27 17Q-26.80 23.60-22.60 27L-22.60 27Q-18.40 30.40-12 30.40L-12 30.40Q-0.80 30.40 7.40 22.40L7.40 22.40Q15.60 14.40 23.60-2.40L23.60-2.40Q27.80-11.40 31.40-21.40L31.40-21.40Q35-31.40 38.60-44L38.60-44L38.80-44.20Q38.80-44.80 39.80-45.60L39.80-45.60Q40.60-46.60 41.40-46.60L41.40-46.60L63.80-46.60Q64.60-46.60 65-46.60L65-46.60Q65.40-46.40 65.40-45.80L65.40-45.80Q65.40-45.20 65-43.80L65-43.80L52.40 0Q48.40 14.40 44.80 20.40L44.80 20.40Q41 26.20 35.20 26L35.20 26Q34 26 33.60 25.80L33.60 25.80Q33.20 25.40 33.20 25L33.20 25Q33.20 24.40 33.80 24L33.80 24Q34.60 23.40 36.20 22.40L36.20 22.40Q38 21.20 38.80 19.40L38.80 19.40Q39.60 17.80 39.60 15.40L39.60 15.40Q39.60 11.80 37.40 9.60L37.40 9.60Q35 7.60 31.40 7.60L31.40 7.60Q26.80 7.60 24.20 10.40L24.20 10.40Q21.60 13.20 21.60 18L21.60 18Q21.80 23.80 25.60 27.20L25.60 27.20Q29.60 30.40 36 30.40L36 30.40Q47.20 30.40 55.40 22.40L55.40 22.40Q63.60 14.40 71.60-2.40L71.60-2.40Q75.80-11.40 79.40-21.40L79.40-21.40Q83-31.40 86.60-44L86.60-44L86.80-44.20Q86.80-44.80 87.80-45.60L87.80-45.60Q88.60-46.60 89.40-46.60L89.40-46.60L102.40-46.60Q105.60-46.60 105.60-49.80L105.60-49.80Q105.60-52.80 102.60-52.80L102.60-52.80L90.60-52.80Q89.60-52.80 89-53L89-53Q88.60-53 88.60-53.80L88.60-53.80Q88.60-54.20 88.80-54.80L88.80-54.80Q88.80-55.40 89-56.20L89-56.20Q91.80-69.40 96-76.80L96-76.80Q100-84 107.40-84.20L107.40-84.20Q108.60-84.20 109.60-83.80L109.60-83.80Q110.60-83.40 110.60-82.60L110.60-82.60Q110.60-81.80 109.80-81.60L109.80-81.60Q109-81.20 107.40-80.60L107.40-80.60Q105.40-79.60 104.40-77.80L104.40-77.80Q103.20-75.80 103.20-73L103.20-73Q103.20-68.80 105.80-66.80L105.80-66.80Q108.40-64.60 112.20-64.60L112.20-64.60Q116.20-64.60 119-67.20L119-67.20Q121.80-69.80 122-75.40L122-75.40Q122.20-81 118.20-84.80L118.20-84.80Q114.20-88.60 104.80-88.80L104.80-88.80Q90.40-88.60 81.60-79.60L81.60-79.60Q72.80-70.40 68-55.80L68-55.80Q67.40-53.60 66.60-53.20L66.60-53.20Q66-52.80 64-52.80L64-52.80Z" fill="currentColor"/>
</svg>