<svg xmlns="http://www.w3.org/2000/svg" viewBox="-10 -97.8 65.21 142.8">
  <path d="M2.40 34L2.40 34Q3.40 35 4.20 35L4.20 35Q4.60 35 5 34.80L5 34.80Q5.40 34.60 5.40 34.60L5.40 34.60Q9.80 32 13.60 28.40L13.60 28.40Q17.40 25 21.20 22.40L21.20 22.40Q34.40 13 39.80 4.20L39.80 4.20Q45.40-4.40 45.20-11.40L45.20-11.40Q45-20 39.60-25L39.60-25Q34.40-30 27.20-30.60L27.20-30.60Q24.60-30.60 21.40-29.60L21.40-29.60Q18.40-28.60 16.20-27.20L16.20-27.20Q15.20-26.40 14-25.40L14-25.40Q12.60-24.40 11.80-24.40L11.80-24.40Q11.60-24.40 11.40-24.40L11.40-24.40Q11-24.40 10.80-24.60L10.80-24.60Q9.80-25 9.20-26L9.20-26Q8.60-27 8.60-28L8.60-28Q8.80-34 9.40-56.40L9.40-56.40Q10-78.60 10-84.40L10-84.40Q10-86 8.80-87L8.80-87Q7.80-87.80 6.20-87.80L6.20-87.80Q4-87.80 2.20-86.40L2.20-86.40Q0.20-85 0-82.20L0-82.20Q0-75.20 0.60-24.80L0.60-24.80Q1.20 25.40 2.40 34L2.40 34ZM9.40 16.20L9.40 16.20Q9.40 15.60 9.20 9.20L9.20 9.20Q8.80 2.60 8.80-3.80L8.80-3.80Q8.80-6.20 9-8L9-8Q9-9.60 9.20-10.20L9.20-10.20Q10.60-13.40 15-16.60L15-16.60Q19.40-19.80 23.20-20L23.20-20Q27.60-19.80 29.40-16L29.40-16Q31.40-12.40 31.40-8.40L31.40-8.40Q31-0.20 25.80 7.20L25.80 7.20Q20.40 14.40 13.60 18.60L13.60 18.60Q12.40 19.20 11.60 19.20L11.60 19.20Q10.20 19.20 9.80 18L9.80 18Q9.40 17 9.40 16.20L9.40 16.20Z" fill="currentColor"/>
</svg>