<svg xmlns="http://www.w3.org/2000/svg" viewBox="-10 -147.6 88.26 185.8">
  <path d="M68.20-10.40L68.20-137.60L62.20-137.60L62.20-24.40Q59.20-27 55-28.40L55-28.40Q50.60-29.80 45.40-29.80L45.40-29.80Q19.80-28.60 9.80-15L9.80-15Q-0.40-1.40 0 9L0 9Q0.20 18.20 6.40 23.20L6.40 23.20Q12.80 28.20 22.40 28.20L22.40 28.20Q50.20 26.60 59.60 11.80L59.60 11.80Q69-2.80 68.20-10.40L68.20-10.40ZM51.20-20.20L51.20-20.20Q55-20.20 58-17.60L58-17.60Q60.80-15 61-11L61-11Q61.20-7.60 56.60-2.80L56.60-2.80Q52 2 40 9.80L40 9.80Q32.20 15 26.60 17.20L26.60 17.20Q21.20 19.20 17.40 19.20L17.40 19.20Q13.20 19.20 10 16.40L10 16.40Q7 13.60 6.80 9.40L6.80 9.40Q8.60 0 24.80-9.60L24.80-9.60Q41.20-19.40 51.20-20.20L51.20-20.20Z" fill="currentColor"/>
</svg>