<svg xmlns="http://www.w3.org/2000/svg" viewBox="-14 -96.2 187.61 139.2">
  <path d="M105.60-50.20L94-50.20Q90.80-50.20 90.80-47L90.80-47Q90.80-44 93.80-44L93.80-44L105.40-44Q106.20-44 106.60-44L106.60-44Q107-43.80 107-43.20L107-43.20Q107-42.60 106.60-41.20L106.60-41.20L94 2.60Q90 17 86.40 23L86.40 23Q82.60 28.80 76.80 28.60L76.80 28.60Q74.80 28.60 74 28L74 28Q73.20 27.60 73.20 26.80L73.20 26.80Q73.20 25.80 74.40 25.60L74.40 25.60Q75.80 25.60 78 24.20L78 24.20Q79.80 23 81 21L81 21Q82 19.20 82 16.80L82 16.80Q82 12.80 79.60 10.80L79.60 10.80Q77.20 8.60 73 8.60L73 8.60Q68.40 8.80 65.60 11.80L65.60 11.80Q62.60 14.80 62.60 19.60L62.60 19.60Q62.80 26.20 67 29.60L67 29.60Q71.20 33 77.60 33L77.60 33Q88.80 33 97 25L97 25Q105.20 17 113.20 0.20L113.20 0.20Q117.40-8.80 121-18.80L121-18.80Q124.60-28.80 128.20-41.40L128.20-41.40L128.40-41.60Q128.40-42.20 129.40-43L129.40-43Q130.20-44 131-44L131-44L144-44Q147.20-44 147.20-47.20L147.20-47.20Q147.20-50.20 144.20-50.20L144.20-50.20L132.20-50.20Q131.20-50.20 130.60-50.40L130.60-50.40Q130.20-50.40 130.20-51.20L130.20-51.20Q130.20-51.60 130.40-52.20L130.40-52.20Q130.40-52.80 130.60-53.60L130.60-53.60Q133.40-66.80 137.60-74.20L137.60-74.20Q141.60-81.40 149-81.60L149-81.60Q150.20-81.60 151.20-81.20L151.20-81.20Q152.20-80.80 152.20-80L152.20-80Q152.20-79.20 151.40-79L151.40-79Q150.60-78.60 149-78L149-78Q147-77 146-75.20L146-75.20Q144.80-73.20 144.80-70.40L144.80-70.40Q144.80-66.20 147.40-64.20L147.40-64.20Q150-62 153.80-62L153.80-62Q157.80-62 160.60-64.60L160.60-64.60Q163.40-67.20 163.60-72.80L163.60-72.80Q163.80-78.40 159.80-82.20L159.80-82.20Q155.80-86 146.40-86.20L146.40-86.20Q132-86 123.20-77L123.20-77Q114.40-67.80 109.60-53.20L109.60-53.20Q109-51 108.20-50.60L108.20-50.60Q107.60-50.20 105.60-50.20L105.60-50.20ZM73.40-54.80L73.40-54.80Q69-54.80 65.60-53L65.60-53Q62.20-51.20 59.80-48.60L59.80-48.60Q58.40-47.20 57.80-46.40L57.80-46.40Q57.40-45.80 56.80-45.80L56.80-45.80Q56.20-45.80 56-47L56-47Q56-48 55.20-50L55.20-50Q54.40-52 52.20-53.40L52.20-53.40Q50.20-54.80 46.40-54.80L46.40-54.80Q42-54.80 38.60-53L38.60-53Q35.20-51.20 32.80-48.60L32.80-48.60Q31.40-47.20 30.80-46.40L30.80-46.40Q30.40-45.80 29.80-45.80L29.80-45.80Q29.20-45.80 29-46.80L29-46.80Q29-48 28.20-50L28.20-50Q27.20-52 25.20-53.20L25.20-53.20Q23.20-54.60 20.40-54.60L20.40-54.60Q12.60-54.40 7.20-49L7.20-49Q2-43.40-2.60-34.80L-2.60-34.80Q-3.40-33.40-3.60-32.60L-3.60-32.60Q-4-31.80-4-31L-4-31Q-4-30-3.40-29.40L-3.40-29.40Q-2.80-28.80-1.80-28.80L-1.80-28.80Q-0.80-28.80-0.20-29.60L-0.20-29.60Q0.40-30.20 1.20-31.40L1.20-31.40Q5.60-39 9-43L9-43Q12.20-47 14.80-47L14.80-47Q16-47 16.60-46.40L16.60-46.40Q17-45.60 17-44.60L17-44.60Q17-43.40 16.60-42L16.60-42Q16.20-40.60 15.80-39.60L15.80-39.60L1.20-3.40Q0.60-2 0.60-1.20L0.60-1.20Q0.60 0 2.80 0L2.80 0L12.60 0Q14 0 14.60-0.40L14.60-0.40Q15.20-1 15.80-2.40L15.80-2.40L28.80-34.80Q30.60-39.20 33.60-42L33.60-42Q36.40-44.80 39.80-44.80L39.80-44.80Q41.60-44.80 42.20-44L42.20-44Q42.80-43.20 42.80-42L42.80-42Q42.80-40.20 42.20-38.40L42.20-38.40Q41.80-36.60 40.80-34.60L40.80-34.60Q41.20-35.40 39.20-30.60L39.20-30.60Q37.20-25.60 28.20-3.40L28.20-3.40Q27.60-2 27.60-1.20L27.60-1.20Q27.60 0 29.80 0L29.80 0L39.60 0Q41 0 41.60-0.40L41.60-0.40Q42.20-1 42.80-2.40L42.80-2.40L55.80-34.80Q57.60-39.20 60.60-42L60.60-42Q63.40-44.80 66.80-44.80L66.80-44.80Q68.60-44.80 69.20-44L69.20-44Q69.80-43.20 69.80-42L69.80-42Q69-36 63.60-24.60L63.60-24.60Q58.20-13.20 57.40-6L57.40-6Q57.40-2 59.80 0L59.80 0Q62 2 66.40 2L66.40 2Q72.20 2 77.40-2.20L77.40-2.20Q82.60-6.20 87.40-14.20L87.40-14.20Q88.40-15.60 88.80-16.60L88.80-16.60Q89.20-17.60 89.20-18.40L89.20-18.40Q89.20-19.40 88.60-19.80L88.60-19.80Q88.20-20.20 87.40-20.20L87.40-20.20Q86.40-20.20 85.80-19.60L85.80-19.60Q85.20-18.80 84.40-17.60L84.40-17.60Q81.60-13 78.80-10L78.80-10Q76.20-7 74.20-6.80L74.20-6.80Q72.60-6.80 72.60-8.60L72.60-8.60Q73.40-14.40 78.40-24.80L78.40-24.80Q83.40-35.20 84.20-44L84.20-44Q84.20-48 81.80-51.20L81.80-51.20Q79.40-54.60 73.40-54.80L73.40-54.80Z" fill="currentColor"/>
</svg>