<svg xmlns="http://www.w3.org/2000/svg" viewBox="-14 -64.8 189 103.2">
  <path d="M90.20-29.60L88.80-26.40Q84.60-17.20 81-12L81-12Q77.20-6.80 74.20-6.80L74.20-6.80Q72.60-6.80 72.60-8.60L72.60-8.60Q73.40-14.40 78.40-24.80L78.40-24.80Q83.40-35.20 84.20-44L84.20-44Q84.20-48 81.80-51.20L81.80-51.20Q79.40-54.60 73.40-54.80L73.40-54.80Q69-54.80 65.60-53L65.60-53Q62.20-51.20 59.80-48.60L59.80-48.60Q58.40-47.20 57.80-46.40L57.80-46.40Q57.40-45.80 56.80-45.80L56.80-45.80Q56.20-45.80 56-47L56-47Q56-48 55.20-50L55.20-50Q54.40-52 52.20-53.40L52.20-53.40Q50.20-54.80 46.40-54.80L46.40-54.80Q42-54.80 38.60-53L38.60-53Q35.20-51.20 32.80-48.60L32.80-48.60Q31.40-47.20 30.80-46.40L30.80-46.40Q30.40-45.80 29.80-45.80L29.80-45.80Q29.20-45.80 29-46.80L29-46.80Q29-48 28.20-50L28.20-50Q27.20-52 25.20-53.20L25.20-53.20Q23.20-54.60 20.40-54.60L20.40-54.60Q12.60-54.40 7.20-49L7.20-49Q2-43.40-2.60-34.80L-2.60-34.80Q-3.40-33.40-3.60-32.60L-3.60-32.60Q-4-31.80-4-31L-4-31Q-4-30-3.40-29.40L-3.40-29.40Q-2.80-28.80-1.80-28.80L-1.80-28.80Q-0.80-28.80-0.20-29.60L-0.20-29.60Q0.40-30.20 1.20-31.40L1.20-31.40Q5.60-39 9-43L9-43Q12.20-47 14.80-47L14.80-47Q16-47 16.60-46.40L16.60-46.40Q17-45.60 17-44.60L17-44.60Q17-43.40 16.60-42L16.60-42Q16.20-40.60 15.80-39.60L15.80-39.60L1.20-3.40Q0.60-2 0.60-1.20L0.60-1.20Q0.60 0 2.80 0L2.80 0L12.60 0Q14 0 14.60-0.40L14.60-0.40Q15.20-1 15.80-2.40L15.80-2.40L28.80-34.80Q30.60-39.20 33.60-42L33.60-42Q36.40-44.80 39.80-44.80L39.80-44.80Q41.60-44.80 42.20-44L42.20-44Q42.80-43.20 42.80-42L42.80-42Q42.80-40.20 42.20-38.40L42.20-38.40Q41.80-36.60 40.80-34.60L40.80-34.60Q41.20-35.40 39.20-30.60L39.20-30.60Q37.20-25.60 28.20-3.40L28.20-3.40Q27.60-2 27.60-1.20L27.60-1.20Q27.60 0 29.80 0L29.80 0L39.60 0Q41 0 41.60-0.40L41.60-0.40Q42.20-1 42.80-2.40L42.80-2.40L55.80-34.80Q57.60-39.20 60.60-42L60.60-42Q63.40-44.80 66.80-44.80L66.80-44.80Q68.60-44.80 69.20-44L69.20-44Q69.80-43.20 69.80-42L69.80-42Q69-36 63.60-24.60L63.60-24.60Q58.20-13.20 57.40-6L57.40-6Q57.40-2 59.80 0L59.80 0Q62 2 66.40 2L66.40 2Q75.80 1.80 82.20-5.20L82.20-5.20Q88.60-12.40 93.20-23.20L93.20-23.20Q97.60-33.60 101.80-40.20L101.80-40.20Q105.80-46.80 109.60-47L109.60-47Q110.80-47 111.20-46.40L111.20-46.40Q111.60-45.60 111.60-44.60L111.60-44.60Q111.60-43.40 111.20-42L111.20-42Q110.80-40.60 110.40-39.60L110.40-39.60L85.80 21.40Q85.40 22.60 84.80 23L84.80 23Q84.20 23.40 82.80 23.40L82.80 23.40L76.60 23.40Q74 23.40 74 26L74 26Q74 28.40 76.40 28.40L76.40 28.40L115 28.40Q117.60 28.40 117.60 25.80L117.60 25.80Q117.60 23.40 115.20 23.40L115.20 23.40L107.20 23.40Q106.40 23.40 105.80 23.40L105.80 23.40Q105.40 23.20 105.40 22.80L105.40 22.80Q105.40 22.60 105.60 22.20L105.60 22.20Q105.60 21.80 105.80 21.40L105.80 21.40L114.80-1Q115-1.80 115.40-2.60L115.40-2.60Q115.80-3.40 116.60-3.40L116.60-3.40Q117.20-3.40 118.20-2.20L118.20-2.20Q119-1 121.40 0.20L121.40 0.20Q123.40 1.20 125.60 1.60L125.60 1.60Q127.60 2 130.20 2L130.20 2Q145 1.40 154.80-10.40L154.80-10.40Q164.60-22 165-37L165-37Q165-45.80 160-50.20L160-50.20Q155.20-54.80 146.60-54.80L146.60-54.80Q142-54.80 138.60-53.40L138.60-53.40Q135-52 132.40-49.60L132.40-49.60Q130.40-47.80 129.60-46.80L129.60-46.80Q128.80-45.60 128.20-45.60L128.20-45.60Q127.60-45.60 127.40-46.80L127.40-46.80Q127.20-47.80 126-50.40L126-50.40Q125-52.20 122.60-53.40L122.60-53.40Q120.20-54.60 116.40-54.60L116.40-54.60Q105.40-54 99.40-46.20L99.40-46.20Q93.60-38.20 90.20-29.60L90.20-29.60ZM125.60-4.80L125.60-4.80Q120.60-4.80 120.60-11.20L120.60-11.20Q120.60-14.20 121.60-17.60L121.60-17.60Q122.80-20.80 124.40-25L124.40-25L128.40-34.80Q130.60-40 134-43.60L134-43.60Q137.60-47.20 141.20-47.40L141.20-47.40Q143.80-47.40 144.80-45.40L144.80-45.40Q145.80-43.40 145.80-40L145.80-40Q145.40-31.40 139.40-18.80L139.40-18.80Q133.20-6 125.60-4.80L125.60-4.80Z" fill="currentColor"/>
</svg>