<svg xmlns="http://www.w3.org/2000/svg" viewBox="-10 -78.2 53.6 155.2">
  <path d="M31.20-37.20L28.20-36.20Q28-36.20 27.80-36.20L27.80-36.20Q27.60-36 27.40-36L27.40-36Q26.80-35.80 20.40-33.80L20.40-33.80Q14-31.60 9.40-31.40L9.40-31.40Q8.40-31.40 8-31.60L8-31.60Q7.40-31.80 7.40-32.40L7.40-32.40L7.40-65.80Q7.40-66.80 6.60-67.60L6.60-67.60Q6-68.20 5-68.20L5-68.20L2.40-68.20Q1.40-68.20 0.60-67.60L0.60-67.60Q0-66.80 0-65.80L0-65.80L0 37.20Q0 39 1.80 39L1.80 39L2.20 38.80Q2.40 38.80 2.60 38.80L2.60 38.80Q2.80 38.80 3 38.60L3 38.60Q5.60 37.40 11.80 35.20L11.80 35.20Q18 32.80 22.80 32.60L22.80 32.60Q24.40 32.60 25.20 33L25.20 33Q26.20 33.60 26.20 34.80L26.20 34.80L26.20 64.60Q26.20 65.60 26.80 66.40L26.80 66.40Q27.60 67 28.60 67L28.60 67L31.20 67Q32.20 67 32.80 66.40L32.80 66.40Q33.60 65.60 33.60 64.60L33.60 64.60L33.60-35.80Q33.60-36.60 33.20-37L33.20-37Q32.60-37.40 32-37.40L32-37.40Q31.80-37.40 31.60-37.40L31.60-37.40Q31.40-37.40 31.20-37.20L31.20-37.20ZM7.40 12.80L7.40-7.80Q8-10.20 14.20-12.80L14.20-12.80Q20.20-15.60 24.40-15.80L24.40-15.80Q26.20-16 26.20-14.80L26.20-14.80L26.20 5.80Q25.60 8.60 19.80 11.20L19.80 11.20Q14.20 13.80 9.80 14L9.80 14Q8.80 14 8 13.60L8 13.60Q7.40 13.40 7.40 12.80L7.40 12.80Z" fill="currentColor"/>
</svg>