<svg xmlns="http://www.w3.org/2000/svg" viewBox="-27.8 -64.8 111 103.2">
  <path d="M54.80-54.80L54.80-54.80Q50.20-54.80 46.80-53.40L46.80-53.40Q43.20-52 40.60-49.60L40.60-49.60Q38.60-47.80 37.80-46.80L37.80-46.80Q37-45.60 36.40-45.60L36.40-45.60Q35.80-45.60 35.60-46.80L35.60-46.80Q35.40-47.80 34.20-50.40L34.20-50.40Q33.20-52.20 30.80-53.40L30.80-53.40Q28.40-54.60 24.60-54.60L24.60-54.60Q16-54.40 10.40-49L10.40-49Q4.60-43.60 0.20-34.80L0.20-34.80Q-0.60-33.40-0.80-32.60L-0.80-32.60Q-1.20-31.80-1.20-31L-1.20-31Q-1.20-30-0.60-29.40L-0.60-29.40Q0-28.80 1-28.80L1-28.80Q2-28.80 2.80-29.60L2.80-29.60Q3.40-30.40 4.20-31.80L4.20-31.80Q8.60-39.40 11.80-43.20L11.80-43.20Q15-47 17.60-47L17.60-47Q18.80-47 19.40-46.40L19.40-46.40Q19.80-45.60 19.80-44.60L19.80-44.60Q19.80-43.40 19.40-42L19.40-42Q19-40.60 18.60-39.60L18.60-39.60L-6 21.40Q-6.40 22.60-7 23L-7 23Q-7.60 23.40-9 23.40L-9 23.40L-15.20 23.40Q-17.80 23.40-17.80 26L-17.80 26Q-17.80 28.40-15.40 28.40L-15.40 28.40L23.20 28.40Q25.80 28.40 25.80 25.80L25.80 25.80Q25.80 23.40 23.40 23.40L23.40 23.40L15.40 23.40Q14.60 23.40 14 23.40L14 23.40Q13.60 23.20 13.60 22.80L13.60 22.80Q13.60 22.60 13.80 22.20L13.80 22.20Q13.80 21.80 14 21.40L14 21.40L23-1Q23.20-1.80 23.60-2.60L23.60-2.60Q24-3.40 24.80-3.40L24.80-3.40Q25.40-3.40 26.40-2.20L26.40-2.20Q27.20-1 29.60 0.20L29.60 0.20Q31.60 1.20 33.80 1.60L33.80 1.60Q35.80 2 38.40 2L38.40 2Q53.20 1.40 63-10.40L63-10.40Q72.80-22 73.20-37L73.20-37Q73.20-45.80 68.20-50.20L68.20-50.20Q63.40-54.80 54.80-54.80L54.80-54.80ZM49.40-47.40L49.40-47.40Q52-47.40 53-45.40L53-45.40Q54-43.40 54-40L54-40Q53.60-31.40 47.60-18.80L47.60-18.80Q41.40-6 33.80-4.80L33.80-4.80Q28.80-4.80 28.80-11.20L28.80-11.20Q28.80-14.20 29.80-17.60L29.80-17.60Q31-20.80 32.60-25L32.60-25L36.60-34.80Q38.80-40 42.20-43.60L42.20-43.60Q45.80-47.20 49.40-47.40L49.40-47.40Z" fill="currentColor"/>
</svg>