<svg xmlns="http://www.w3.org/2000/svg" viewBox="-26.4 -64.8 182 103.2">
  <path d="M56.20-54.80L56.20-54.80Q51.60-54.80 48.20-53.40L48.20-53.40Q44.60-52 42-49.60L42-49.60Q40-47.80 39.20-46.80L39.20-46.80Q38.40-45.60 37.80-45.60L37.80-45.60Q37.20-45.60 37-46.80L37-46.80Q36.80-47.80 35.60-50.40L35.60-50.40Q34.60-52.20 32.20-53.40L32.20-53.40Q29.80-54.60 26-54.60L26-54.60Q17.40-54.40 11.80-49L11.80-49Q6-43.60 1.60-34.80L1.60-34.80Q0.80-33.40 0.60-32.60L0.60-32.60Q0.20-31.80 0.20-31L0.20-31Q0.20-30 0.80-29.40L0.80-29.40Q1.40-28.80 2.40-28.80L2.40-28.80Q3.40-28.80 4.20-29.60L4.20-29.60Q4.80-30.40 5.60-31.80L5.60-31.80Q10-39.40 13.20-43.20L13.20-43.20Q16.40-47 19-47L19-47Q20.20-47 20.80-46.40L20.80-46.40Q21.20-45.60 21.20-44.60L21.20-44.60Q21.20-43.40 20.80-42L20.80-42Q20.40-40.60 20-39.60L20-39.60L-4.60 21.40Q-5 22.60-5.60 23L-5.60 23Q-6.20 23.40-7.60 23.40L-7.60 23.40L-13.80 23.40Q-16.40 23.40-16.40 26L-16.40 26Q-16.40 28.40-14 28.40L-14 28.40L24.60 28.40Q27.20 28.40 27.20 25.80L27.20 25.80Q27.20 23.40 24.80 23.40L24.80 23.40L16.80 23.40Q16 23.40 15.40 23.40L15.40 23.40Q15 23.20 15 22.80L15 22.80Q15 22.60 15.20 22.20L15.20 22.20Q15.20 21.80 15.40 21.40L15.40 21.40L24.40-1Q24.60-1.80 25-2.60L25-2.60Q25.40-3.40 26.20-3.40L26.20-3.40Q26.80-3.40 27.80-2.20L27.80-2.20Q28.60-1 31 0.20L31 0.20Q33 1.20 35.20 1.60L35.20 1.60Q37.20 2 39.80 2L39.80 2Q54.60 1.40 64.40-10.40L64.40-10.40Q74.20-22 74.60-37L74.60-37Q74.60-45.80 69.60-50.20L69.60-50.20Q64.80-54.80 56.20-54.80L56.20-54.80ZM127.20-54.80L127.20-54.80Q122.60-54.80 119.20-53.40L119.20-53.40Q115.60-52 113-49.60L113-49.60Q111-47.80 110.20-46.80L110.20-46.80Q109.40-45.60 108.80-45.60L108.80-45.60Q108.20-45.60 108-46.80L108-46.80Q107.80-47.80 106.60-50.40L106.60-50.40Q105.60-52.20 103.20-53.40L103.20-53.40Q100.80-54.60 97-54.60L97-54.60Q90-54.40 85.40-51.20L85.40-51.20Q81-48 77.80-43.20L77.80-43.20Q77-41.80 76.60-41L76.60-41Q76.20-40.20 76.20-39.40L76.20-39.40Q76.20-38.40 76.80-37.80L76.80-37.80Q77.40-37.40 78.40-37.40L78.40-37.40Q79.40-37.40 80.20-38L80.20-38Q80.80-38.80 81.60-39.80L81.60-39.80Q81.60-39.80 81.80-40.20L81.80-40.20Q82-40.60 82.40-41L82.40-41Q84-43 85.80-45L85.80-45Q87.80-46.80 90-47L90-47Q91.20-47 91.80-46.40L91.80-46.40Q92.20-45.60 92.20-44.60L92.20-44.60Q92.20-43.40 91.80-42L91.80-42Q91.40-40.60 91-39.60L91-39.60L66.40 21.40Q66 22.60 65.40 23L65.40 23Q64.80 23.40 63.40 23.40L63.40 23.40L57.20 23.40Q54.60 23.40 54.60 26L54.60 26Q54.60 28.40 57 28.40L57 28.40L95.60 28.40Q98.20 28.40 98.20 25.80L98.20 25.80Q98.20 23.40 95.80 23.40L95.80 23.40L87.80 23.40Q87 23.40 86.40 23.40L86.40 23.40Q86 23.20 86 22.80L86 22.80Q86 22.60 86.20 22.20L86.20 22.20Q86.20 21.80 86.40 21.40L86.40 21.40L95.40-1Q95.60-1.80 96-2.60L96-2.60Q96.40-3.40 97.20-3.40L97.20-3.40Q97.80-3.40 98.80-2.20L98.80-2.20Q99.60-1 102 0.20L102 0.20Q104 1.20 106.20 1.60L106.20 1.60Q108.20 2 110.80 2L110.80 2Q125.60 1.40 135.40-10.40L135.40-10.40Q145.20-22 145.60-37L145.60-37Q145.60-45.80 140.60-50.20L140.60-50.20Q135.80-54.80 127.20-54.80L127.20-54.80ZM50.80-47.40L50.80-47.40Q53.40-47.40 54.40-45.40L54.40-45.40Q55.40-43.40 55.40-40L55.40-40Q55-31.40 49-18.80L49-18.80Q42.80-6 35.20-4.80L35.20-4.80Q30.20-4.80 30.20-11.20L30.20-11.20Q30.20-14.20 31.20-17.60L31.20-17.60Q32.40-20.80 34-25L34-25L38-34.80Q40.20-40 43.60-43.60L43.60-43.60Q47.20-47.20 50.80-47.40L50.80-47.40ZM121.80-47.40L121.80-47.40Q124.40-47.40 125.40-45.40L125.40-45.40Q126.40-43.40 126.40-40L126.40-40Q126-31.40 120-18.80L120-18.80Q113.80-6 106.20-4.80L106.20-4.80Q101.20-4.80 101.20-11.20L101.20-11.20Q101.20-14.20 102.20-17.60L102.20-17.60Q103.40-20.80 105-25L105-25L109-34.80Q111.20-40 114.60-43.60L114.60-43.60Q118.20-47.20 121.80-47.40L121.80-47.40Z" fill="currentColor"/>
</svg>