<svg xmlns="http://www.w3.org/2000/svg" viewBox="-9.8 -84.6 73.8 169.6">
  <path d="M5.80-4.40L15.60 7.60Q18 10.60 20.20 13.60L20.20 13.60Q22.20 16.40 24.20 19.60L24.20 19.60Q24.60 20.20 25 21.20L25 21.20Q25.40 22 25.40 22.40L25.40 22.40Q25.40 22.60 25.40 22.80L25.40 22.80Q25.40 23 25.20 23.20L25.20 23.20Q24.80 23.80 24.40 24L24.40 24Q23.80 24.20 23 24.20L23 24.20Q22.40 24.20 21.40 24L21.40 24Q20.40 23.80 19.80 23.60L19.80 23.60Q19.40 23.60 19 23.60L19 23.60L17.40 23Q9.60 23.20 5 29L5 29Q0.40 34.60 0.20 42.20L0.20 42.20Q0.20 49.60 6.40 57.20L6.40 57.20Q12.40 64.80 23.40 73.20L23.40 73.20Q24.60 74 26 74.60L26 74.60Q27.40 75 28.60 75L28.60 75Q29.60 75 30.60 74.60L30.60 74.60Q31.40 74.40 31.60 73.80L31.60 73.80Q32 73 32 72.40L32 72.40Q32 71 31 69.80L31 69.80Q30 68.60 28.80 67.60L28.80 67.60Q26.80 67.40 25.40 64.60L25.40 64.60Q24 62 23.60 60.40L23.60 60.40Q22.80 58 22.80 55.20L22.80 55.20Q22.80 49 26 44.80L26 44.80Q29.20 40.80 35.40 40.60L35.40 40.60Q39.80 40.60 44.20 41.80L44.20 41.80Q48.60 43 51.20 44L51.20 44L51.40 44.20Q52 44.40 52.40 44.40L52.40 44.40Q52.80 44.40 53 44.40L53 44.40Q54 44.40 54 43.60L54 43.60Q53.80 41.60 51.20 37.80L51.20 37.80Q48.60 34.20 46.60 32.20L46.60 32.20Q40.80 25.40 36.80 19L36.80 19Q33 12.60 32.80 4.40L32.80 4.40Q32.80 4 32.80 3.80L32.80 3.80L33 2.40Q33 2 33 1.80L33 1.80Q33.80-6.80 38-14.20L38-14.20Q42-21.40 46.20-27.60L46.20-27.60Q47-29.20 47-30.60L47-30.60Q47-32.20 46.60-33.20L46.60-33.20Q46.20-34.40 46.20-34.40L46.20-34.40Q44.40-36.40 31-52.40L31-52.40Q17.40-68.40 13.20-73L13.20-73Q12.40-73.80 11.40-74.20L11.40-74.20Q10.60-74.60 9.60-74.60L9.60-74.60Q8-74.60 6.80-73.60L6.80-73.60Q5.60-72.60 5.60-70.40L5.60-70.40Q5.60-69 6.40-67.20L6.40-67.20Q7.60-65.40 12.80-58.40L12.80-58.40Q18-51.40 18.60-40.40L18.60-40.40Q18.60-34.80 16-28.40L16-28.40Q13.20-22 6.60-15L6.60-15Q5.20-13.40 4.40-12L4.40-12Q3.80-10.40 3.80-9.20L3.80-9.20Q4-7 4.80-5.80L4.80-5.80Q5.60-4.40 5.80-4.40L5.80-4.40Z" fill="currentColor"/>
</svg>