<svg xmlns="http://www.w3.org/2000/svg" viewBox="-9.8 -210 93.2 220">
  <path d="M27.80 0L35 0L35-200L27.80-200L27.80 0ZM73.40 0L73.40-200L48.40-200L48.40 0L73.40 0ZM10.20-136L10.20-136Q6-136 3.20-133.20L3.20-133.20Q0.40-130.40 0.20-126L0.20-126Q0.40-121.80 3.20-119L3.20-119Q6-116.20 10.20-116L10.20-116Q14.40-116.20 17.20-119L17.20-119Q20-121.80 20.20-126L20.20-126Q20-130.40 17.20-133.20L17.20-133.20Q14.40-136 10.20-136L10.20-136ZM10.20-85.60L10.20-85.60Q6-85.60 3.20-82.80L3.20-82.80Q0.40-80 0.20-75.60L0.20-75.60Q0.40-71.40 3.20-68.60L3.20-68.60Q6-65.80 10.20-65.60L10.20-65.60Q14.40-65.80 17.20-68.60L17.20-68.60Q20-71.40 20.20-75.60L20.20-75.60Q20-80 17.20-82.80L17.20-82.80Q14.40-85.60 10.20-85.60L10.20-85.60Z" fill="currentColor"/>
</svg>