<svg xmlns="http://www.w3.org/2000/svg" viewBox="-10 -80 69.8 159.6">
  <path d="M42.20-21.60L47.40-23.60Q48.40-24 49.20-25L49.20-25Q49.80-26 49.80-27L49.80-27L49.80-41.20Q49.80-42 49.40-42.40L49.40-42.40Q49-42.80 48.40-42.80L48.40-42.80Q48.20-42.80 48-42.80L48-42.80Q47.60-42.80 47.40-42.60L47.40-42.60Q47.20-42.60 45.20-41.80L45.20-41.80Q43.40-41 42.40-40.80L42.40-40.80Q41.40-40.80 40.40-41.60L40.40-41.60Q39.60-42.20 39.60-43.40L39.60-43.40L39.60-67.80Q39.60-68.80 38.80-69.40L38.80-69.40Q38-70 36.80-70L36.80-70Q35.20-70 34.40-69.40L34.40-69.40Q33.60-68.80 33.60-67.80L33.60-67.80L33.60-41.80Q33.40-40.20 33-38.60L33-38.60Q32.40-37 31-36L31-36Q29-34.80 25-33.20L25-33.20Q21.20-31.80 18.40-31L18.40-31Q17-31.20 16.60-32.40L16.60-32.40Q16-33.80 16-35L16-35L16-59Q16-60 15.20-60.60L15.20-60.60Q14.20-61.20 13.20-61.20L13.20-61.20Q11.60-61.20 10.80-60.60L10.80-60.60Q10-60 10-59L10-59L10-32Q10-29.80 9.20-28.40L9.20-28.40Q8.60-27 7.60-26.60L7.60-26.60Q6.40-26 4.60-25.20L4.60-25.20Q2.60-24.40 2.40-24.40L2.40-24.40Q1.40-24 0.60-23.20L0.60-23.20Q0-22.20 0-21.20L0-21.20L0-7Q0-5.20 1.80-5.20L1.80-5.20L2.20-5.40Q2.40-5.40 4-6.20L4-6.20Q5.60-6.80 7-7.40L7-7.40L7.20-7.60Q8.40-7.60 9.20-6.40L9.20-6.40Q10-5.20 10-4L10-4L10 15.80Q10 17.40 9.40 18.60L9.40 18.60Q8.80 20 7.80 20.40L7.80 20.40Q6.60 20.80 4.60 21.60L4.60 21.60Q2.60 22.40 2.40 22.60L2.40 22.60Q1.40 23 0.60 23.80L0.60 23.80Q0 24.80 0 25.80L0 25.80L0 40Q0 41.80 1.80 41.80L1.80 41.80L2.20 41.60Q2.40 41.60 4 41L4 41Q5.60 40.40 7 39.80L7 39.80Q7.40 39.60 7.60 39.60L7.60 39.60Q8.60 39.80 9.40 40.80L9.40 40.80Q10 42 10 42.80L10 42.80L10 67.40Q10 68.40 10.80 69L10.80 69Q11.60 69.60 12.60 69.60L12.60 69.60Q14.20 69.60 15 69L15 69Q16 68.40 16 67.40L16 67.40L16 39.60Q16 37.60 16.60 36.60L16.60 36.60Q17.20 35.40 18 35.20L18 35.20L30.20 30.20Q30.40 30.20 30.40 30.20L30.40 30.20L30.80 30Q32.20 30.20 32.80 31.40L32.80 31.40Q33.60 32.60 33.60 33.60L33.60 33.60L33.60 58.60Q33.60 59.60 34.40 60.20L34.40 60.20Q35.20 60.80 36.20 60.80L36.20 60.80Q37.80 60.80 38.80 60.20L38.80 60.20Q39.60 59.60 39.60 58.60L39.60 58.60L39.60 30.20Q39.60 29 40.20 27.60L40.20 27.60Q40.80 26.20 41.80 25.60L41.80 25.60Q43 25 45.20 24.20L45.20 24.20Q47.20 23.40 47.40 23.40L47.40 23.40Q48.40 23 49.20 22L49.20 22Q49.80 21 49.80 20L49.80 20L49.80 5.80Q49.80 5 49.40 4.60L49.40 4.60Q49 4.20 48.40 4.20L48.40 4.20Q48.20 4.20 48 4.20L48 4.20Q47.60 4.20 47.40 4.40L47.40 4.40L42.20 6.40Q41.20 6.40 40.40 5.40L40.40 5.40Q39.60 4.60 39.60 2.80L39.60 2.80L39.60-15.80Q39.60-17 40.40-19L40.40-19Q41-21 42.20-21.60L42.20-21.60ZM33.60 9L33.60 9Q32.20 12.20 27.20 14.40L27.20 14.40Q22.20 16.80 18.40 17L18.40 17Q17.40 17 16.80 16.80L16.80 16.80Q16.20 16.40 16 16L16 16Q15.80 15.20 15.60 12.40L15.60 12.40Q15.40 9.60 15.40 6L15.40 6Q15.40 1.20 15.60-3.20L15.60-3.20Q15.80-7.40 16-8.80L16-8.80Q16.80-11.60 21.60-13.80L21.60-13.80Q26.40-16.20 30.60-16.40L30.60-16.40Q31.60-16.40 32.40-16.20L32.40-16.20Q33.20-15.80 33.60-15.20L33.60-15.20Q34-14.40 34.20-11.20L34.20-11.20Q34.40-8 34.40-3.80L34.40-3.80Q34.40 0.40 34.20 4L34.20 4Q34 7.60 33.60 9L33.60 9Z" fill="currentColor"/>
</svg>