<svg xmlns="http://www.w3.org/2000/svg" viewBox="-10 -229.6 154.2 371.24">
  <path d="M80.20-54L75.20-83Q75-84.80 75.20-85.40L75.20-85.40Q75.60-86 76.40-86.80L76.40-86.80Q93-102 103.60-121L103.60-121Q114-140 114.40-163L114.40-163Q114.40-176.20 111-188.40L111-188.40Q107.60-200.40 101.40-209.60L101.40-209.60Q99-213.20 96-216.20L96-216.20Q92.80-219.40 91-219.60L91-219.60Q88.80-219.40 85-216.40L85-216.40Q81.20-213.40 78-210L78-210Q67-197.40 62.60-180.60L62.60-180.60Q58.20-163.80 58.40-147.80L58.40-147.80Q58.40-139 59.20-130.20L59.20-130.20Q60.20-121.40 61.20-115L61.20-115Q61.60-113.40 61.40-112.40L61.40-112.40Q61.20-111.60 59.40-110.20L59.40-110.20Q36.80-92.60 19-70L19-70Q1-47.40 0-17.40L0-17.40Q0 9.60 18 29.60L18 29.60Q36 49.40 72.80 50.40L72.80 50.40Q76.40 50.40 80 50L80 50Q83.60 49.80 86.60 49.20L86.60 49.20Q88.20 48.80 88.80 49L88.80 49Q89.40 49.20 89.60 51L89.60 51Q91.60 61.40 93.20 72.60L93.20 72.60Q94.80 83.80 95 91.20L95 91.20Q94.20 112.60 83.60 118.80L83.60 118.80Q73 125 63.20 124.40L63.20 124.40Q55.20 124.20 51.20 122.40L51.20 122.40Q47.20 120.60 47.20 118.60L47.20 118.60Q47.20 117.60 48.60 116.80L48.60 116.80Q50.20 116.20 53.60 115.20L53.60 115.20Q58.60 114 62.60 109.40L62.60 109.40Q66.80 105 67 96.40L67 96.40Q67 88 62 82L62 82Q57 76.20 47.80 76L47.80 76Q37.60 76.20 32 82.80L32 82.80Q26.40 89.40 26.40 99L26.40 99Q26 109.60 34 120.20L34 120.20Q42.20 130.80 64.40 131.60L64.40 131.60Q75.60 132.20 89.20 124.40L89.20 124.40Q102.60 116.40 103.80 91.60L103.80 91.60Q103.60 82.60 101.80 70.60L101.80 70.60Q99.80 58.60 98 48.80L98 48.80Q97.60 47.20 98.20 46.60L98.20 46.60Q98.60 46.20 100.60 45.40L100.60 45.40Q116 39.20 125 27L125 27Q134 14.80 134.20-2.20L134.20-2.20Q134-22 121.20-36L121.20-36Q108.40-49.80 86-50.40L86-50.40Q82.20-50.20 81.40-50.80L81.40-50.80Q80.40-51.40 80.20-54L80.20-54ZM94-188.60L94-188.60Q99-188.60 102.40-184.60L102.40-184.60Q105.80-180.40 106-172.20L106-172.20Q105.40-155.60 94.60-142L94.60-142Q83.80-128.60 71.20-118.20L71.20-118.20Q70.20-117.20 69.60-117.60L69.60-117.60Q68.80-117.80 68.60-119.80L68.60-119.80Q68-123.80 67.80-128.60L67.80-128.60Q67.40-133.40 67.40-138.20L67.40-138.20Q68-161.80 76.20-175.20L76.20-175.20Q84.40-188.40 94-188.60L94-188.60ZM68-78L72.20-52.40Q72.80-49.80 72.20-49L72.20-49Q71.80-48.40 69.20-47.60L69.20-47.60Q55.80-42.80 48.20-32.40L48.20-32.40Q40.40-21.80 40.20-8.80L40.20-8.80Q40.40 4.80 46.60 14L46.60 14Q52.80 23 63.20 26.60L63.20 26.60Q64.40 27 66 27.40L66 27.40Q67.40 27.80 68.60 27.80L68.60 27.80Q69.80 27.80 70.40 27.20L70.40 27.20Q71 26.60 71 25.60L71 25.60Q71 24.60 70 24L70 24Q69.20 23.40 68 23L68 23Q61.60 20.20 57.60 14.40L57.60 14.40Q53.80 8.60 53.60 1.60L53.60 1.60Q53.80-7 59-13.20L59-13.20Q64.40-19.20 73.60-21.80L73.60-21.80Q76-22.40 76.60-22.20L76.60-22.20Q77.40-21.80 77.60-20.20L77.60-20.20L87.60 39.40Q88 41 87.40 41.40L87.40 41.40Q87 41.80 84.80 42.20L84.80 42.20Q82.40 42.60 79.60 43L79.60 43Q76.60 43.20 73.60 43.20L73.60 43.20Q47 42.80 31.60 30L31.60 30Q16.40 17.20 16-4L16-4Q15.60-12.80 19-24.60L19-24.60Q22.60-36.20 34.60-50.40L34.60-50.40Q43.60-60.20 50.80-66.80L50.80-66.80Q58.20-73.20 65.20-78.80L65.20-78.80Q66.60-80 67.20-79.80L67.20-79.80Q67.80-79.60 68-78L68-78ZM95.80 36.40L86-20.60Q85.60-22.40 86-23L86-23Q86.40-23.60 88.20-23.40L88.20-23.40Q100.60-22 109-13.20L109-13.20Q117.40-4.20 117.80 9.20L117.80 9.20Q117.60 18.80 112.60 26L112.60 26Q107.60 33.40 99 37.60L99 37.60Q97.20 38.60 96.60 38.40L96.60 38.40Q96 38.20 95.80 36.40L95.80 36.40Z" fill="currentColor"/>
</svg>