<svg xmlns="http://www.w3.org/2000/svg" viewBox="-10 -39.6 111.82 74.6">
  <path d="M47-29.60L47-29.60Q25-29.40 12.60-21.60L12.60-21.60Q0.20-14 0-2.60L0-2.60Q-0.20 8.80 10.20 16.60L10.20 16.60Q20.80 24.60 44.80 25L44.80 25Q71.20 24.60 81.60 16.80L81.60 16.80Q92.20 9 91.80-2.60L91.80-2.60Q90.80-14.40 77-21.80L77-21.80Q63-29.40 47-29.60L47-29.60ZM41.40-24.60L41.40-24.60Q52.80-24 60.40-15L60.40-15Q68-5.80 68.20 4.60L68.20 4.60Q68 12.80 63.60 16.40L63.60 16.40Q59 20 51.60 20L51.60 20Q40.40 19.40 32.20 10L32.20 10Q23.80 0.40 23.40-10.60L23.40-10.60Q23.60-18.80 28.60-21.80L28.60-21.80Q33.60-24.80 41.40-24.60L41.40-24.60Z" fill="currentColor"/>
</svg>